<svg width="42" height="42" viewBox="0 0 42 42" fill="none" xmlns="http://www.w3.org/2000/svg">
<path d="M31.3035 19.0693C33.7447 18.7263 35.6242 16.6333 35.6295 14.0975C35.6295 11.5985 33.8077 9.52652 31.419 9.13452" stroke="#E78EBA" stroke-width="2" stroke-linecap="round" stroke-linejoin="round"/>
<path d="M34.5249 24.9381C36.8892 25.2916 38.5394 26.1194 38.5394 27.8256C38.5394 28.9999 37.7624 29.7629 36.5059 30.2424" stroke="#E78EBA" stroke-width="2" stroke-linecap="round" stroke-linejoin="round"/>
<path fill-rule="evenodd" clip-rule="evenodd" d="M20.8018 25.6616C15.1773 25.6616 10.3735 26.5139 10.3735 29.9176C10.3735 33.3196 15.1475 34.1964 20.8018 34.1964C26.4263 34.1964 31.2283 33.3529 31.2283 29.9474C31.2283 26.5419 26.456 25.6616 20.8018 25.6616Z" stroke="#1F3368" stroke-width="2" stroke-linecap="round" stroke-linejoin="round"/>
<path fill-rule="evenodd" clip-rule="evenodd" d="M20.8019 20.8039C24.4926 20.8039 27.4851 17.8131 27.4851 14.1206C27.4851 10.4299 24.4926 7.43738 20.8019 7.43738C17.1111 7.43738 14.1186 10.4299 14.1186 14.1206C14.1046 17.7991 17.0744 20.7916 20.7529 20.8039H20.8019Z" stroke="#1F3368" stroke-width="2" stroke-linecap="round" stroke-linejoin="round"/>
<path d="M10.2984 19.0693C7.85544 18.7263 5.97769 16.6333 5.97244 14.0975C5.97244 11.5985 7.79419 9.52652 10.1829 9.13452" stroke="#E78EBA" stroke-width="2" stroke-linecap="round" stroke-linejoin="round"/>
<path d="M7.07691 24.9381C4.71266 25.2916 3.06241 26.1194 3.06241 27.8256C3.06241 28.9999 3.83941 29.7629 5.09591 30.2424" stroke="#E78EBA" stroke-width="2" stroke-linecap="round" stroke-linejoin="round"/>
</svg>
