<svg width="51" height="51" viewBox="0 0 51 51" fill="none" xmlns="http://www.w3.org/2000/svg">
<path d="M0.545639 7.74531C0.0751839 6.91148 0.784199 5.86359 1.73258 5.98471L46.3458 10.7647C46.6027 10.7922 46.8438 10.9022 47.0329 11.0782C47.222 11.2542 47.349 11.4868 47.3948 11.741C47.4407 11.9953 47.4029 12.2575 47.2872 12.4885C47.1715 12.7195 46.9841 12.9068 46.753 13.0223L37.7196 17.5391L34.6427 33.6925C34.5042 34.5608 33.3687 34.9716 32.7078 34.3908L20.7789 24.5487L14.0104 27.3986C13.7487 27.5086 13.4563 27.5219 13.1857 27.4361C12.915 27.3504 12.6837 27.1711 12.533 26.9305L0.579903 7.80547C0.568348 7.78555 0.556293 7.76583 0.545639 7.74531ZM16.3357 9.95365L36.53 15.4611L42.0373 12.7073L16.3357 9.95365ZM14.5315 11.9396L29.1959 18.8405C29.4844 18.9774 29.7068 19.2233 29.8141 19.5241L33.1222 28.8974L35.2747 17.597L14.5315 11.9396ZM27.9822 21.5157L23.2659 23.5015L30.9086 29.8068L27.9822 21.5157ZM14.0209 24.8004L25.7511 19.8613L4.76011 9.98323L14.0209 24.8004Z" fill="#E78EBA"/>
<path d="M38.4464 34.6803C40.6833 35.0532 42.6001 36.3955 43.8427 38.4601C44.0975 38.8852 44.3189 39.3294 44.5048 39.7888C45.8845 40.2696 47.091 41.1483 47.9718 42.3141C50.2609 45.3664 49.8162 49.3776 49.7962 49.5468C49.7778 49.7027 49.7288 49.8534 49.6521 49.9904C49.5754 50.1273 49.4724 50.2479 49.3492 50.345C49.2259 50.4422 49.0847 50.5141 48.9336 50.5568C48.7825 50.5994 48.6245 50.6118 48.4686 50.5933C48.3127 50.5749 48.162 50.5259 48.0251 50.4492C47.8881 50.3725 47.7676 50.2695 47.6704 50.1463C47.5733 50.023 47.5013 49.8818 47.4587 49.7307C47.4161 49.5796 47.4037 49.4216 47.4221 49.2657C47.4259 49.2338 47.7807 46.0439 46.0592 43.7485C45.813 43.4203 45.527 43.1241 45.2077 42.8665C45.2577 43.5879 45.1744 44.3123 44.962 45.0035C44.4779 46.4557 43.104 47.3022 41.6207 47.0612C40.1412 46.8206 38.6483 45.4817 38.6483 43.0313C38.6483 41.4301 39.5435 40.1757 41.0431 39.6757C41.2524 39.6063 41.4665 39.5527 41.6837 39.5153C41.041 38.5192 39.9107 37.3479 38.0534 37.0385C37.7407 36.9864 37.4615 36.8122 37.2772 36.5542C37.0929 36.2962 37.0187 35.9756 37.0708 35.6629C37.1229 35.3502 37.2972 35.071 37.5551 34.8867C37.8131 34.7024 38.1337 34.6282 38.4464 34.6803ZM41.039 43.0313C41.039 44.1481 41.5586 44.6287 42.0037 44.7009C42.1939 44.7319 42.5383 44.7144 42.6941 44.247C42.8793 43.6916 42.8865 42.8093 42.6614 41.8381C42.37 41.8209 42.0778 41.8567 41.7992 41.9437C41.2734 42.1191 41.039 42.4544 41.039 43.0313Z" fill="#E78EBA"/>
</svg>
