<svg width="16" height="16" viewBox="0 0 16 16" fill="none" xmlns="http://www.w3.org/2000/svg">
<path d="M14.6667 11.28V13.28C14.6674 13.4657 14.6294 13.6494 14.555 13.8195C14.4806 13.9897 14.3715 14.1424 14.2347 14.2679C14.0979 14.3934 13.9364 14.489 13.7605 14.5485C13.5846 14.6079 13.3983 14.63 13.2133 14.6133C11.1619 14.3904 9.19134 13.6894 7.46001 12.5666C5.84923 11.5431 4.48356 10.1774 3.46001 8.56665C2.33333 6.82745 1.63217 4.84731 1.41334 2.78665C1.39668 2.60229 1.41859 2.41649 1.47767 2.24107C1.53676 2.06564 1.63172 1.90444 1.75652 1.76773C1.88131 1.63102 2.03321 1.52179 2.20253 1.447C2.37186 1.37221 2.5549 1.33349 2.74001 1.33332H4.74001C5.06354 1.33013 5.3772 1.4447 5.62251 1.65567C5.86783 1.86664 6.02806 2.15961 6.07334 2.47998C6.15775 3.12003 6.31431 3.74847 6.54001 4.35332C6.6297 4.59193 6.64911 4.85126 6.59594 5.10057C6.54277 5.34988 6.41925 5.57872 6.24001 5.75998L5.39334 6.60665C6.34238 8.27568 7.72431 9.65761 9.39334 10.6066L10.24 9.75998C10.4213 9.58074 10.6501 9.45722 10.8994 9.40405C11.1487 9.35087 11.4081 9.37029 11.6467 9.45998C12.2515 9.68568 12.88 9.84223 13.52 9.92665C13.8439 9.97234 14.1396 10.1355 14.351 10.385C14.5624 10.6345 14.6748 10.953 14.6667 11.28Z" stroke="#E78EBA" stroke-width="2" stroke-linecap="round" stroke-linejoin="round"/>
</svg>
