<svg width="87" height="87" viewBox="0 0 87 87" fill="none" xmlns="http://www.w3.org/2000/svg">
<g clip-path="url(#clip0)">
<path d="M68.2601 67.1754C71.9255 61.9173 75.2947 56.653 79.1934 51.5775C80.1067 50.4111 78.839 48.666 77.4715 48.8747C71.6421 49.8795 64.5651 51.0366 59.4109 53.7743C58.2137 54.3421 58.5989 55.7726 59.5382 56.207C59.4752 56.3835 59.5888 56.6229 59.7025 56.8626C60.4467 58.1225 61.3108 59.326 61.9984 60.4664C53.148 69.9433 35.8791 82.3868 26.846 66.4335C25.9314 64.8144 25.6658 63.3269 25.93 62.0287C28.9244 63.3948 32.2271 64.1748 35.4348 63.8263C39.6509 63.4397 46.0638 57.172 41.5807 53.2855C37.9112 50.1867 30.3308 52.7555 27.0796 55.1772C26.1157 55.9277 25.3285 56.741 24.6606 57.4978C24.2506 57.2521 24.0175 57.0693 23.6076 56.824C20.3355 54.5631 17.7373 51.2495 16.1534 47.6009C15.0239 44.9103 15.7224 42.6726 17.1836 40.8063C20.3926 43.2439 24.2758 44.6284 27.3699 44.0408C33.9175 42.695 34.1712 33.3357 26.9483 32.9486C23.6331 32.7612 19.8083 34.282 16.9734 36.6532C16.7968 36.5903 16.6833 36.3508 16.5068 36.2879C7.43333 27.9795 19.0063 18.6775 28.2535 21.4775C29.0792 21.6724 29.7531 20.6196 28.9335 20.1284C20.5551 15.4499 10.0643 21.1589 10.4537 30.9464C10.518 33.5556 12.3535 36.498 14.6741 38.917C12.6649 41.4831 11.6517 44.6033 12.7689 47.8863C14.3848 52.8393 18.2572 57.6019 22.9351 60.6626C22.0923 64.142 23.3168 67.9607 25.9152 71.2744C36.4664 85.4812 54.2587 73.5227 63.4742 63.5791C64.1618 64.7195 64.6729 65.7971 65.2406 66.9941C65.7525 68.0717 67.5865 68.2282 68.2601 67.1754ZM19.4837 38.5427C20.2647 38.0256 21.046 37.5084 21.8842 37.1108C23.2011 36.4862 24.6316 36.101 25.9991 35.8924C29.2698 35.3676 30.6969 40.8501 26.1278 41.1108C23.8777 41.0048 21.4696 39.9472 19.4837 38.5427ZM30.547 56.6125C32.2231 55.8176 38.5498 53.697 39.8619 56.1541C40.8901 58.0128 35.6225 60.5112 34.7277 60.789C32.2258 61.3893 29.5154 60.6214 27.1133 59.2677C28.027 58.1011 29.2303 57.2371 30.547 56.6125ZM73.5853 53.3576C71.2676 56.51 69.1263 59.7253 66.9851 62.9407C65.4335 60.5969 63.7622 58.31 62.028 56.1997C65.7714 55.7439 69.7099 54.4627 73.5853 53.3576Z" fill="#72C7F0"/>
</g>
<defs>
<clipPath id="clip0">
<rect width="65" height="65" fill="white" transform="translate(58.729) rotate(64.625)"/>
</clipPath>
</defs>
</svg>
